<?xml version="1.0" encoding="UTF-8"?>
<svg xmlns="http://www.w3.org/2000/svg" xmlns:xlink="http://www.w3.org/1999/xlink" width="270pt" height="269.999989pt" viewBox="0 0 270 269.999989" version="1.2">
<defs>
<clipPath id="clip1">
  <path d="M 111 195 L 173 195 L 173 258.75 L 111 258.75 Z M 111 195 "/>
</clipPath>
<filter id="alpha" filterUnits="objectBoundingBox" x="0%" y="0%" width="100%" height="100%">
  <feColorMatrix type="matrix" in="SourceGraphic" values="0 0 0 0 1 0 0 0 0 1 0 0 0 0 1 0 0 0 1 0"/>
</filter>
<mask id="mask0">
  <g filter="url(#alpha)">
<rect x="0" y="0" width="270" height="269.999989" style="fill:rgb(0%,0%,0%);fill-opacity:0.3255;stroke:none;"/>
  </g>
</mask>
<clipPath id="clip3">
  <path d="M 1 0.601562 L 61 0.601562 L 61 63.75 L 1 63.75 Z M 1 0.601562 "/>
</clipPath>
<clipPath id="clip2">
  <rect x="0" y="0" width="62" height="64"/>
</clipPath>
<g id="surface5" clip-path="url(#clip2)">
<g clip-path="url(#clip3)" clip-rule="nonzero">
<path style="fill:none;stroke-width:1.5;stroke-linecap:round;stroke-linejoin:round;stroke:rgb(0%,3.138733%,34.509277%);stroke-opacity:1;stroke-miterlimit:4;" d="M 322.489557 462.329178 L 274.480752 348.200783 L 214.339836 348.200783 L 258.675087 462.329178 " transform="matrix(0.541242,0,0,0.54205,-114.220629,-187.382813)"/>
</g>
<path style="fill:none;stroke-width:1.5;stroke-linecap:round;stroke-linejoin:round;stroke:rgb(0%,3.138733%,34.509277%);stroke-opacity:1;stroke-miterlimit:4;" d="M 284.577613 373.344054 L 224.465565 373.344054 " transform="matrix(0.541242,0,0,0.54205,-114.220629,-187.382813)"/>
<path style="fill:none;stroke-width:1.5;stroke-linecap:round;stroke-linejoin:round;stroke:rgb(0%,3.138733%,34.509277%);stroke-opacity:1;stroke-miterlimit:4;" d="M 294.999247 398.19186 L 234.086091 398.19186 " transform="matrix(0.541242,0,0,0.54205,-114.220629,-187.382813)"/>
<path style="fill:none;stroke-width:1.5;stroke-linecap:round;stroke-linejoin:round;stroke:rgb(0%,3.138733%,34.509277%);stroke-opacity:1;stroke-miterlimit:4;" d="M 307.0231 425.43941 L 244.717025 425.43941 " transform="matrix(0.541242,0,0,0.54205,-114.220629,-187.382813)"/>
<path style="fill:none;stroke-width:1.5;stroke-linecap:round;stroke-linejoin:round;stroke:rgb(0%,3.138733%,34.509277%);stroke-opacity:1;stroke-miterlimit:4;" d="M 318.245844 452.694167 L 255.939768 452.694167 " transform="matrix(0.541242,0,0,0.54205,-114.220629,-187.382813)"/>
</g>
<clipPath id="clip4">
  <path d="M 86 195 L 146 195 L 146 258.75 L 86 258.75 Z M 86 195 "/>
</clipPath>
<clipPath id="clip5">
  <path d="M 19 11.25 L 65 11.25 L 65 50 L 19 50 Z M 19 11.25 "/>
</clipPath>
<clipPath id="clip6">
  <path d="M 223 242 L 267 242 L 267 258.75 L 223 258.75 Z M 223 242 "/>
</clipPath>
<clipPath id="clip7">
  <path d="M 1.394531 255 L 268.195312 255 L 268.195312 258.75 L 1.394531 258.75 Z M 1.394531 255 "/>
</clipPath>
<clipPath id="clip8">
  <path d="M 202 251 L 218 251 L 218 258.75 L 202 258.75 Z M 202 251 "/>
</clipPath>
<clipPath id="clip9">
  <path d="M 227 250 L 242 250 L 242 258.75 L 227 258.75 Z M 227 250 "/>
</clipPath>
</defs>
<g id="surface1">
<path style="fill:none;stroke-width:1.5;stroke-linecap:round;stroke-linejoin:round;stroke:rgb(89.019775%,90.19928%,100%);stroke-opacity:1;stroke-miterlimit:4;" d="M 326.49511 268.043561 L 326.49511 348.200796 C 326.49511 348.842169 326.617802 349.454717 326.863187 350.045645 C 327.108571 350.629367 327.454997 351.14823 327.902463 351.602236 C 328.357147 352.056242 328.876785 352.402151 329.461378 352.64717 C 330.053188 352.892189 330.66665 353.014698 331.301764 353.014698 L 362.963614 353.014698 C 363.605945 353.014698 364.219407 353.130001 364.804 353.37502 C 365.39581 353.620039 365.915448 353.965948 366.370132 354.419954 C 366.817598 354.87396 367.164024 355.392824 367.409408 355.983752 C 367.654793 356.567473 367.777486 357.180021 367.777486 357.821394 L 367.777486 402.710311 C 367.777486 403.344477 367.900178 403.957025 368.138346 404.547953 C 368.38373 405.138881 368.730156 405.657745 369.184839 406.11175 C 369.632306 406.55855 370.151944 406.904459 370.743754 407.149478 C 371.335565 407.394497 371.949026 407.517006 372.58414 407.517006 L 419.474279 407.517006 " transform="matrix(0.541242,0,0,0.54205,-3.220633,7.61718)"/>
<path style="fill:none;stroke-width:1.5;stroke-linecap:round;stroke-linejoin:round;stroke:rgb(89.019775%,90.19928%,100%);stroke-opacity:1;stroke-miterlimit:4;" d="M 107.164444 405.26139 L 147.761186 405.26139 C 148.403516 405.26139 149.016978 405.138881 149.601571 404.901068 C 150.193382 404.656049 150.71302 404.31014 151.167703 403.856135 C 151.61517 403.402129 151.961595 402.883265 152.20698 402.292337 C 152.452365 401.708615 152.575057 401.096068 152.575057 400.454695 L 152.575057 266.169886 " transform="matrix(0.541242,0,0,0.54205,-3.220633,7.61718)"/>
<g clip-path="url(#clip1)" clip-rule="nonzero">
<use xlink:href="#surface5" transform="matrix(1,0,0,1,111,195)" mask="url(#mask0)"/>
</g>
<g clip-path="url(#clip4)" clip-rule="nonzero">
<path style="fill:none;stroke-width:1.5;stroke-linecap:round;stroke-linejoin:round;stroke:rgb(0%,3.138733%,34.509277%);stroke-opacity:1;stroke-miterlimit:4;" d="M 166.179477 462.329191 L 214.188282 348.200796 L 274.329198 348.200796 L 229.993947 462.329191 " transform="matrix(0.541242,0,0,0.54205,-3.220633,7.61718)"/>
</g>
<path style="fill:none;stroke-width:1.5;stroke-linecap:round;stroke-linejoin:round;stroke:rgb(0%,3.138733%,34.509277%);stroke-opacity:1;stroke-miterlimit:4;" d="M 204.091421 373.344066 L 264.203468 373.344066 " transform="matrix(0.541242,0,0,0.54205,-3.220633,7.61718)"/>
<path style="fill:none;stroke-width:1.5;stroke-linecap:round;stroke-linejoin:round;stroke:rgb(0%,3.138733%,34.509277%);stroke-opacity:1;stroke-miterlimit:4;" d="M 193.669786 398.191872 L 254.582942 398.191872 " transform="matrix(0.541242,0,0,0.54205,-3.220633,7.61718)"/>
<path style="fill:none;stroke-width:1.5;stroke-linecap:round;stroke-linejoin:round;stroke:rgb(0%,3.138733%,34.509277%);stroke-opacity:1;stroke-miterlimit:4;" d="M 181.645933 425.439423 L 243.952009 425.439423 " transform="matrix(0.541242,0,0,0.54205,-3.220633,7.61718)"/>
<path style="fill:none;stroke-width:1.5;stroke-linecap:round;stroke-linejoin:round;stroke:rgb(0%,3.138733%,34.509277%);stroke-opacity:1;stroke-miterlimit:4;" d="M 170.430407 452.69418 L 232.729265 452.69418 " transform="matrix(0.541242,0,0,0.54205,-3.220633,7.61718)"/>
<g clip-path="url(#clip5)" clip-rule="nonzero">
<path style=" stroke:none;fill-rule:nonzero;fill:rgb(75.689697%,78.039551%,100%);fill-opacity:0.2667;" d="M 22.140625 11.269531 L 62.371094 11.269531 C 62.667969 11.269531 62.953125 11.324219 63.222656 11.4375 C 63.496094 11.550781 63.738281 11.714844 63.945312 11.921875 C 64.15625 12.132812 64.316406 12.371094 64.429688 12.644531 C 64.542969 12.917969 64.597656 13.203125 64.597656 13.5 L 64.597656 47.707031 C 64.597656 48.003906 64.542969 48.289062 64.429688 48.5625 C 64.316406 48.835938 64.15625 49.074219 63.945312 49.285156 C 63.738281 49.496094 63.496094 49.65625 63.222656 49.769531 C 62.953125 49.882812 62.667969 49.9375 62.371094 49.9375 L 22.140625 49.9375 C 21.84375 49.9375 21.5625 49.882812 21.289062 49.769531 C 21.015625 49.65625 20.773438 49.496094 20.566406 49.285156 C 20.355469 49.074219 20.195312 48.835938 20.082031 48.5625 C 19.96875 48.289062 19.914062 48.003906 19.914062 47.707031 L 19.914062 13.5 C 19.914062 13.203125 19.96875 12.917969 20.082031 12.644531 C 20.195312 12.371094 20.355469 12.132812 20.566406 11.921875 C 20.773438 11.714844 21.015625 11.550781 21.289062 11.4375 C 21.5625 11.324219 21.84375 11.269531 22.140625 11.269531 Z M 22.140625 11.269531 "/>
</g>
<path style=" stroke:none;fill-rule:nonzero;fill:rgb(75.689697%,78.039551%,100%);fill-opacity:0.2667;" d="M 196.964844 16.484375 L 228.976562 16.484375 C 229.214844 16.484375 229.441406 16.527344 229.660156 16.617188 C 229.878906 16.710938 230.070312 16.839844 230.238281 17.003906 C 230.402344 17.171875 230.53125 17.367188 230.625 17.585938 C 230.714844 17.800781 230.757812 18.03125 230.757812 18.265625 L 230.757812 45.546875 C 230.757812 45.785156 230.714844 46.011719 230.625 46.230469 C 230.53125 46.449219 230.402344 46.640625 230.238281 46.808594 C 230.070312 46.976562 229.878906 47.105469 229.660156 47.195312 C 229.441406 47.285156 229.214844 47.332031 228.976562 47.332031 L 196.964844 47.332031 C 196.730469 47.332031 196.5 47.285156 196.285156 47.195312 C 196.066406 47.105469 195.871094 46.976562 195.707031 46.808594 C 195.539062 46.640625 195.410156 46.449219 195.320312 46.230469 C 195.230469 46.011719 195.183594 45.785156 195.183594 45.546875 L 195.183594 18.265625 C 195.183594 18.03125 195.230469 17.800781 195.320312 17.585938 C 195.410156 17.367188 195.539062 17.171875 195.707031 17.003906 C 195.871094 16.839844 196.066406 16.710938 196.285156 16.617188 C 196.5 16.527344 196.730469 16.484375 196.964844 16.484375 Z M 196.964844 16.484375 "/>
<path style=" stroke:none;fill-rule:nonzero;fill:rgb(75.689697%,78.039551%,100%);fill-opacity:0.2667;" d="M 202.183594 133.359375 L 242.414062 133.359375 C 242.710938 133.359375 242.996094 133.417969 243.265625 133.53125 C 243.539062 133.644531 243.78125 133.804688 243.988281 134.011719 C 244.199219 134.222656 244.359375 134.464844 244.472656 134.738281 C 244.585938 135.007812 244.640625 135.292969 244.640625 135.589844 L 244.640625 169.800781 C 244.640625 170.09375 244.585938 170.378906 244.472656 170.652344 C 244.359375 170.925781 244.199219 171.167969 243.988281 171.375 C 243.78125 171.585938 243.539062 171.746094 243.265625 171.859375 C 242.996094 171.972656 242.710938 172.027344 242.414062 172.027344 L 202.183594 172.027344 C 201.886719 172.027344 201.601562 171.972656 201.332031 171.859375 C 201.058594 171.746094 200.816406 171.585938 200.609375 171.375 C 200.398438 171.167969 200.238281 170.925781 200.125 170.652344 C 200.011719 170.378906 199.957031 170.09375 199.957031 169.800781 L 199.957031 135.589844 C 199.957031 135.292969 200.011719 135.007812 200.125 134.738281 C 200.238281 134.464844 200.398438 134.222656 200.609375 134.011719 C 200.816406 133.804688 201.058594 133.644531 201.332031 133.53125 C 201.601562 133.417969 201.886719 133.359375 202.183594 133.359375 Z M 202.183594 133.359375 "/>
<path style=" stroke:none;fill-rule:nonzero;fill:rgb(88.238525%,89.408875%,100%);fill-opacity:1;" d="M 46.332031 27.78125 L 211.886719 27.78125 C 212.167969 27.78125 212.449219 27.808594 212.726562 27.863281 C 213 27.917969 213.269531 28 213.53125 28.105469 C 213.789062 28.214844 214.039062 28.347656 214.273438 28.503906 C 214.507812 28.660156 214.722656 28.839844 214.921875 29.039062 C 215.121094 29.238281 215.300781 29.457031 215.457031 29.691406 C 215.613281 29.925781 215.746094 30.175781 215.855469 30.433594 C 215.960938 30.695312 216.042969 30.964844 216.097656 31.242188 C 216.152344 31.519531 216.179688 31.796875 216.179688 32.082031 L 216.179688 148.609375 C 216.179688 148.894531 216.152344 149.171875 216.097656 149.449219 C 216.042969 149.726562 215.960938 149.996094 215.855469 150.257812 C 215.746094 150.515625 215.613281 150.765625 215.457031 151 C 215.300781 151.234375 215.121094 151.453125 214.921875 151.652344 C 214.722656 151.851562 214.507812 152.03125 214.273438 152.1875 C 214.039062 152.34375 213.789062 152.476562 213.53125 152.585938 C 213.269531 152.691406 213 152.773438 212.722656 152.828125 C 212.449219 152.882812 212.167969 152.910156 211.886719 152.910156 L 46.332031 152.910156 C 46.050781 152.910156 45.773438 152.882812 45.496094 152.828125 C 45.21875 152.773438 44.949219 152.691406 44.691406 152.585938 C 44.429688 152.476562 44.183594 152.34375 43.949219 152.1875 C 43.714844 152.03125 43.496094 151.851562 43.296875 151.652344 C 43.097656 151.453125 42.917969 151.234375 42.761719 151 C 42.605469 150.765625 42.472656 150.515625 42.367188 150.257812 C 42.257812 149.996094 42.175781 149.726562 42.121094 149.449219 C 42.066406 149.171875 42.039062 148.894531 42.039062 148.609375 L 42.039062 32.082031 C 42.039062 31.796875 42.066406 31.519531 42.121094 31.242188 C 42.175781 30.964844 42.257812 30.695312 42.367188 30.433594 C 42.472656 30.175781 42.605469 29.925781 42.761719 29.691406 C 42.917969 29.457031 43.097656 29.238281 43.296875 29.039062 C 43.496094 28.839844 43.714844 28.660156 43.949219 28.503906 C 44.183594 28.347656 44.429688 28.214844 44.691406 28.105469 C 44.949219 28 45.21875 27.917969 45.496094 27.863281 C 45.773438 27.808594 46.050781 27.78125 46.332031 27.78125 Z M 46.332031 27.78125 "/>
<path style=" stroke:none;fill-rule:evenodd;fill:rgb(100%,100%,100%);fill-opacity:1;" d="M 104.511719 121.628906 L 201.691406 121.628906 C 202.152344 121.628906 202.59375 121.714844 203.019531 121.894531 C 203.445312 122.070312 203.820312 122.320312 204.144531 122.648438 C 204.472656 122.972656 204.722656 123.347656 204.898438 123.773438 C 205.074219 124.199219 205.164062 124.644531 205.164062 125.105469 L 205.164062 136.835938 C 205.164062 137.296875 205.074219 137.738281 204.898438 138.164062 C 204.722656 138.589844 204.472656 138.96875 204.144531 139.292969 C 203.820312 139.621094 203.445312 139.871094 203.019531 140.046875 C 202.59375 140.222656 202.152344 140.3125 201.691406 140.3125 L 104.511719 140.3125 C 104.050781 140.3125 103.609375 140.222656 103.183594 140.046875 C 102.757812 139.871094 102.382812 139.621094 102.058594 139.292969 C 101.730469 138.96875 101.480469 138.589844 101.304688 138.164062 C 101.128906 137.738281 101.042969 137.296875 101.042969 136.835938 L 101.042969 125.105469 C 101.042969 124.644531 101.128906 124.199219 101.304688 123.773438 C 101.480469 123.347656 101.730469 122.972656 102.058594 122.648438 C 102.382812 122.320312 102.757812 122.070312 103.183594 121.894531 C 103.609375 121.714844 104.050781 121.628906 104.511719 121.628906 Z M 104.511719 121.628906 "/>
<path style=" stroke:none;fill-rule:evenodd;fill:rgb(82.348633%,83.918762%,98.81897%);fill-opacity:1;" d="M 46.335938 27.78125 L 91.625 27.78125 L 91.625 152.910156 L 46.335938 152.910156 C 46.050781 152.910156 45.773438 152.882812 45.496094 152.828125 C 45.21875 152.773438 44.949219 152.691406 44.691406 152.582031 C 44.429688 152.476562 44.183594 152.34375 43.949219 152.1875 C 43.714844 152.03125 43.496094 151.851562 43.296875 151.652344 C 43.097656 151.453125 42.917969 151.234375 42.761719 151 C 42.605469 150.765625 42.472656 150.515625 42.367188 150.257812 C 42.257812 149.996094 42.175781 149.726562 42.121094 149.449219 C 42.066406 149.171875 42.039062 148.890625 42.039062 148.609375 L 42.039062 32.082031 C 42.039062 31.796875 42.066406 31.519531 42.121094 31.242188 C 42.175781 30.964844 42.257812 30.695312 42.367188 30.433594 C 42.472656 30.175781 42.605469 29.925781 42.761719 29.691406 C 42.917969 29.457031 43.097656 29.238281 43.296875 29.039062 C 43.496094 28.839844 43.714844 28.660156 43.949219 28.503906 C 44.183594 28.347656 44.429688 28.214844 44.691406 28.105469 C 44.949219 28 45.21875 27.917969 45.496094 27.863281 C 45.773438 27.808594 46.050781 27.78125 46.335938 27.78125 Z M 46.335938 27.78125 "/>
<path style="fill:none;stroke-width:1.5;stroke-linecap:round;stroke-linejoin:miter;stroke:rgb(54.508972%,58.428955%,100%);stroke-opacity:1;stroke-miterlimit:4;" d="M 94.440522 79.400574 L 119.881147 79.400574 " transform="matrix(0.541242,0,0,0.54205,-3.220633,7.61718)"/>
<path style="fill:none;stroke-width:1.5;stroke-linecap:round;stroke-linejoin:miter;stroke:rgb(54.508972%,58.428955%,100%);stroke-opacity:1;stroke-miterlimit:4;" d="M 94.440522 106.655331 L 128.108754 106.532821 M 141.547178 106.655331 L 159.958251 106.655331 " transform="matrix(0.541242,0,0,0.54205,-3.220633,7.61718)"/>
<path style="fill:none;stroke-width:1.5;stroke-linecap:round;stroke-linejoin:miter;stroke:rgb(54.508972%,58.428955%,100%);stroke-opacity:1;stroke-miterlimit:4;" d="M 94.440522 133.910088 L 143.928853 133.910088 " transform="matrix(0.541242,0,0,0.54205,-3.220633,7.61718)"/>
<path style="fill:none;stroke-width:1.5;stroke-linecap:round;stroke-linejoin:miter;stroke:rgb(54.508972%,58.428955%,100%);stroke-opacity:1;stroke-miterlimit:4;" d="M 94.440522 161.157639 L 119.881147 161.157639 " transform="matrix(0.541242,0,0,0.54205,-3.220633,7.61718)"/>
<path style=" stroke:none;fill-rule:evenodd;fill:rgb(54.508972%,58.428955%,100%);fill-opacity:1;" d="M 46.335938 27.78125 L 91.625 27.78125 L 91.625 40.292969 L 42.039062 40.292969 L 42.039062 32.082031 C 42.039062 31.796875 42.066406 31.519531 42.121094 31.242188 C 42.175781 30.964844 42.257812 30.695312 42.367188 30.433594 C 42.472656 30.175781 42.605469 29.925781 42.761719 29.691406 C 42.917969 29.457031 43.097656 29.238281 43.296875 29.039062 C 43.496094 28.839844 43.714844 28.660156 43.949219 28.503906 C 44.183594 28.347656 44.429688 28.214844 44.691406 28.105469 C 44.949219 28 45.21875 27.917969 45.496094 27.863281 C 45.773438 27.808594 46.050781 27.78125 46.335938 27.78125 Z M 46.335938 27.78125 "/>
<path style=" stroke:none;fill-rule:nonzero;fill:rgb(100%,100%,100%);fill-opacity:1;" d="M 50.628906 34.230469 C 50.628906 34.414062 50.59375 34.589844 50.523438 34.753906 C 50.457031 34.921875 50.355469 35.070312 50.230469 35.199219 C 50.101562 35.328125 49.953125 35.425781 49.785156 35.496094 C 49.617188 35.566406 49.445312 35.601562 49.261719 35.601562 C 49.082031 35.601562 48.90625 35.566406 48.738281 35.496094 C 48.570312 35.425781 48.425781 35.328125 48.296875 35.199219 C 48.167969 35.070312 48.070312 34.921875 48 34.753906 C 47.929688 34.589844 47.894531 34.414062 47.894531 34.230469 C 47.894531 34.050781 47.929688 33.875 48 33.707031 C 48.070312 33.539062 48.167969 33.390625 48.296875 33.265625 C 48.425781 33.136719 48.570312 33.035156 48.738281 32.96875 C 48.90625 32.898438 49.082031 32.863281 49.261719 32.863281 C 49.445312 32.863281 49.617188 32.898438 49.785156 32.96875 C 49.953125 33.035156 50.101562 33.136719 50.230469 33.265625 C 50.355469 33.390625 50.457031 33.539062 50.523438 33.707031 C 50.59375 33.875 50.628906 34.050781 50.628906 34.230469 Z M 50.628906 34.230469 "/>
<path style=" stroke:none;fill-rule:nonzero;fill:rgb(100%,100%,100%);fill-opacity:1;" d="M 57.265625 34.230469 C 57.265625 34.414062 57.230469 34.589844 57.164062 34.753906 C 57.09375 34.921875 56.996094 35.070312 56.867188 35.199219 C 56.738281 35.328125 56.589844 35.425781 56.421875 35.496094 C 56.253906 35.566406 56.082031 35.601562 55.898438 35.601562 C 55.71875 35.601562 55.542969 35.566406 55.378906 35.496094 C 55.210938 35.425781 55.0625 35.328125 54.933594 35.199219 C 54.804688 35.070312 54.707031 34.921875 54.636719 34.753906 C 54.566406 34.589844 54.535156 34.414062 54.535156 34.230469 C 54.535156 34.050781 54.566406 33.875 54.636719 33.707031 C 54.707031 33.539062 54.804688 33.390625 54.933594 33.265625 C 55.0625 33.136719 55.210938 33.035156 55.378906 32.96875 C 55.542969 32.898438 55.71875 32.863281 55.898438 32.863281 C 56.082031 32.863281 56.253906 32.898438 56.421875 32.96875 C 56.589844 33.035156 56.738281 33.136719 56.867188 33.265625 C 56.996094 33.390625 57.09375 33.539062 57.164062 33.707031 C 57.230469 33.875 57.265625 34.050781 57.265625 34.230469 Z M 57.265625 34.230469 "/>
<path style=" stroke:none;fill-rule:nonzero;fill:rgb(100%,100%,100%);fill-opacity:1;" d="M 63.90625 34.230469 C 63.90625 34.414062 63.871094 34.589844 63.800781 34.753906 C 63.730469 34.921875 63.632812 35.070312 63.503906 35.199219 C 63.375 35.328125 63.226562 35.425781 63.0625 35.496094 C 62.894531 35.566406 62.71875 35.601562 62.539062 35.601562 C 62.355469 35.601562 62.183594 35.566406 62.015625 35.496094 C 61.847656 35.425781 61.699219 35.328125 61.570312 35.199219 C 61.445312 35.070312 61.34375 34.921875 61.277344 34.753906 C 61.207031 34.589844 61.171875 34.414062 61.171875 34.230469 C 61.171875 34.050781 61.207031 33.875 61.277344 33.707031 C 61.34375 33.539062 61.445312 33.390625 61.570312 33.265625 C 61.699219 33.136719 61.847656 33.035156 62.015625 32.96875 C 62.183594 32.898438 62.355469 32.863281 62.539062 32.863281 C 62.71875 32.863281 62.894531 32.898438 63.0625 32.96875 C 63.226562 33.035156 63.375 33.136719 63.503906 33.265625 C 63.632812 33.390625 63.730469 33.539062 63.800781 33.707031 C 63.871094 33.875 63.90625 34.050781 63.90625 34.230469 Z M 63.90625 34.230469 "/>
<path style=" stroke:none;fill-rule:evenodd;fill:rgb(75.689697%,78.039551%,100%);fill-opacity:0.2431;" d="M 138.792969 52.109375 L 214.613281 52.109375 C 215.074219 52.109375 215.515625 52.199219 215.941406 52.375 C 216.371094 52.554688 216.746094 52.804688 217.070312 53.132812 C 217.398438 53.457031 217.648438 53.835938 217.824219 54.261719 C 218.003906 54.6875 218.089844 55.132812 218.089844 55.59375 L 218.089844 109.628906 C 218.089844 110.089844 218.003906 110.535156 217.824219 110.960938 C 217.648438 111.386719 217.398438 111.765625 217.070312 112.09375 C 216.746094 112.417969 216.371094 112.671875 215.941406 112.847656 C 215.515625 113.023438 215.074219 113.113281 214.613281 113.113281 L 138.792969 113.113281 C 138.332031 113.113281 137.886719 113.023438 137.460938 112.847656 C 137.035156 112.671875 136.660156 112.417969 136.332031 112.09375 C 136.007812 111.765625 135.753906 111.386719 135.578125 110.960938 C 135.402344 110.535156 135.3125 110.089844 135.3125 109.628906 L 135.3125 55.59375 C 135.3125 55.132812 135.402344 54.6875 135.578125 54.261719 C 135.753906 53.835938 136.007812 53.457031 136.332031 53.132812 C 136.660156 52.804688 137.035156 52.554688 137.460938 52.375 C 137.886719 52.199219 138.332031 52.109375 138.792969 52.109375 Z M 138.792969 52.109375 "/>
<path style=" stroke:none;fill-rule:nonzero;fill:rgb(75.689697%,78.039551%,100%);fill-opacity:1;" d="M 150.507812 40.378906 L 241.164062 40.378906 C 241.625 40.378906 242.066406 40.46875 242.492188 40.644531 C 242.921875 40.820312 243.296875 41.074219 243.621094 41.398438 C 243.949219 41.726562 244.199219 42.105469 244.375 42.53125 C 244.554688 42.957031 244.640625 43.402344 244.640625 43.863281 L 244.640625 97.507812 C 244.640625 97.96875 244.554688 98.414062 244.375 98.839844 C 244.199219 99.265625 243.949219 99.644531 243.621094 99.96875 C 243.296875 100.296875 242.921875 100.546875 242.492188 100.726562 C 242.066406 100.902344 241.625 100.992188 241.164062 100.992188 L 150.507812 100.992188 C 150.046875 100.992188 149.601562 100.902344 149.175781 100.726562 C 148.75 100.546875 148.375 100.296875 148.046875 99.96875 C 147.722656 99.644531 147.46875 99.265625 147.292969 98.839844 C 147.117188 98.414062 147.027344 97.96875 147.027344 97.507812 L 147.027344 43.863281 C 147.027344 43.402344 147.117188 42.957031 147.292969 42.53125 C 147.46875 42.105469 147.722656 41.726562 148.046875 41.398438 C 148.375 41.074219 148.75 40.820312 149.175781 40.644531 C 149.601562 40.46875 150.046875 40.378906 150.507812 40.378906 Z M 150.507812 40.378906 "/>
<path style=" stroke:none;fill-rule:evenodd;fill:rgb(100%,100%,100%);fill-opacity:1;" d="M 189.976562 64.628906 L 189.976562 74.394531 C 189.976562 74.675781 190.046875 74.9375 190.1875 75.179688 C 190.328125 75.425781 190.523438 75.617188 190.765625 75.753906 C 191.007812 75.894531 191.269531 75.960938 191.550781 75.960938 C 191.832031 75.957031 192.09375 75.886719 192.335938 75.742188 L 200.585938 70.859375 C 200.703125 70.789062 200.808594 70.707031 200.90625 70.609375 C 201 70.511719 201.082031 70.40625 201.148438 70.289062 C 201.214844 70.167969 201.269531 70.042969 201.300781 69.914062 C 201.335938 69.78125 201.355469 69.648438 201.355469 69.511719 C 201.355469 69.375 201.335938 69.242188 201.300781 69.109375 C 201.269531 68.980469 201.214844 68.855469 201.148438 68.738281 C 201.082031 68.617188 201 68.511719 200.90625 68.414062 C 200.808594 68.316406 200.703125 68.234375 200.585938 68.164062 L 192.335938 63.28125 C 192.09375 63.136719 191.832031 63.066406 191.550781 63.0625 C 191.269531 63.0625 191.007812 63.128906 190.765625 63.269531 C 190.523438 63.410156 190.328125 63.601562 190.1875 63.84375 C 190.046875 64.085938 189.976562 64.347656 189.976562 64.628906 Z M 189.976562 64.628906 "/>
<path style=" stroke:none;fill-rule:evenodd;fill:rgb(75.689697%,78.039551%,100%);fill-opacity:0.2431;" d="M 96.269531 27.78125 L 134.011719 27.78125 L 134.011719 44.117188 C 134.011719 44.484375 133.941406 44.839844 133.800781 45.179688 C 133.660156 45.519531 133.460938 45.820312 133.199219 46.082031 C 132.9375 46.34375 132.640625 46.542969 132.296875 46.683594 C 131.957031 46.828125 131.605469 46.898438 131.234375 46.898438 L 99.046875 46.898438 C 98.675781 46.898438 98.324219 46.828125 97.984375 46.683594 C 97.644531 46.542969 97.34375 46.34375 97.082031 46.082031 C 96.820312 45.820312 96.621094 45.519531 96.480469 45.179688 C 96.339844 44.839844 96.269531 44.484375 96.269531 44.117188 Z M 96.269531 27.78125 "/>
<path style=" stroke:none;fill-rule:nonzero;fill:rgb(75.689697%,78.039551%,100%);fill-opacity:1;" d="M 105.121094 16.917969 L 137.308594 16.917969 C 137.679688 16.917969 138.03125 16.988281 138.371094 17.128906 C 138.710938 17.269531 139.011719 17.472656 139.273438 17.730469 C 139.535156 17.992188 139.734375 18.292969 139.875 18.632812 C 140.015625 18.976562 140.085938 19.328125 140.085938 19.699219 L 140.085938 37.597656 C 140.085938 37.96875 140.015625 38.324219 139.875 38.664062 C 139.734375 39.003906 139.535156 39.304688 139.273438 39.566406 C 139.011719 39.824219 138.710938 40.027344 138.371094 40.167969 C 138.03125 40.308594 137.679688 40.378906 137.308594 40.378906 L 105.121094 40.378906 C 104.75 40.378906 104.398438 40.308594 104.058594 40.167969 C 103.714844 40.027344 103.417969 39.824219 103.15625 39.566406 C 102.894531 39.304688 102.695312 39.003906 102.554688 38.664062 C 102.414062 38.324219 102.34375 37.96875 102.34375 37.597656 L 102.34375 19.699219 C 102.34375 19.328125 102.414062 18.976562 102.554688 18.632812 C 102.695312 18.292969 102.894531 17.992188 103.15625 17.730469 C 103.417969 17.472656 103.714844 17.269531 104.058594 17.128906 C 104.398438 16.988281 104.75 16.917969 105.121094 16.917969 Z M 105.121094 16.917969 "/>
<path style="fill:none;stroke-width:1.5;stroke-linecap:round;stroke-linejoin:round;stroke:rgb(8.628845%,15.689087%,92.549133%);stroke-opacity:1;stroke-miterlimit:4;" d="M 218.446429 33.992793 L 212.67267 39.757946 L 218.446429 45.530304 " transform="matrix(0.541242,0,0,0.54205,-3.220633,7.61718)"/>
<path style="fill:none;stroke-width:1.5;stroke-linecap:round;stroke-linejoin:round;stroke:rgb(8.628845%,15.689087%,92.549133%);stroke-opacity:1;stroke-miterlimit:4;" d="M 240.249586 33.992793 L 246.016128 39.757946 L 240.249586 45.530304 " transform="matrix(0.541242,0,0,0.54205,-3.220633,7.61718)"/>
<path style="fill:none;stroke-width:1.5;stroke-linecap:round;stroke-linejoin:round;stroke:rgb(8.628845%,15.689087%,92.549133%);stroke-opacity:1;stroke-miterlimit:4;" d="M 233.191166 33.992793 L 226.139963 45.530304 " transform="matrix(0.541242,0,0,0.54205,-3.220633,7.61718)"/>
<path style=" stroke:none;fill-rule:evenodd;fill:rgb(75.689697%,78.039551%,100%);fill-opacity:0.7882;" d="M 80.820312 107.246094 L 44.039062 107.246094 C 43.71875 107.246094 43.40625 107.308594 43.109375 107.433594 C 42.808594 107.554688 42.546875 107.734375 42.320312 107.960938 C 42.089844 108.191406 41.914062 108.453125 41.789062 108.753906 C 41.667969 109.050781 41.605469 109.363281 41.605469 109.6875 L 41.605469 145.335938 C 41.605469 145.660156 41.667969 145.972656 41.789062 146.269531 C 41.914062 146.570312 42.089844 146.832031 42.320312 147.0625 C 42.546875 147.289062 42.808594 147.464844 43.109375 147.589844 C 43.40625 147.714844 43.71875 147.777344 44.039062 147.777344 L 80.820312 147.777344 C 81.140625 147.777344 81.453125 147.714844 81.75 147.589844 C 82.050781 147.464844 82.3125 147.289062 82.539062 147.0625 C 82.769531 146.832031 82.945312 146.570312 83.070312 146.269531 C 83.191406 145.972656 83.253906 145.660156 83.253906 145.335938 L 83.253906 109.6875 C 83.253906 109.363281 83.191406 109.050781 83.070312 108.753906 C 82.945312 108.453125 82.769531 108.191406 82.539062 107.960938 C 82.3125 107.734375 82.046875 107.554688 81.75 107.433594 C 81.453125 107.308594 81.140625 107.246094 80.820312 107.246094 Z M 80.820312 107.246094 "/>
<path style=" stroke:none;fill-rule:nonzero;fill:rgb(54.508972%,58.428955%,100%);fill-opacity:1;" d="M 11.328125 99.035156 L 74.789062 99.035156 C 75.113281 99.035156 75.421875 99.097656 75.71875 99.222656 C 76.019531 99.34375 76.28125 99.519531 76.511719 99.75 C 76.738281 99.976562 76.914062 100.242188 77.039062 100.539062 C 77.160156 100.839844 77.222656 101.152344 77.222656 101.472656 L 77.222656 139.023438 C 77.222656 139.347656 77.160156 139.660156 77.039062 139.957031 C 76.914062 140.257812 76.738281 140.519531 76.511719 140.75 C 76.28125 140.976562 76.019531 141.152344 75.71875 141.277344 C 75.421875 141.402344 75.113281 141.460938 74.789062 141.460938 L 11.328125 141.460938 C 11.007812 141.460938 10.695312 141.402344 10.398438 141.277344 C 10.097656 141.152344 9.835938 140.976562 9.605469 140.75 C 9.378906 140.519531 9.203125 140.257812 9.078125 139.957031 C 8.957031 139.660156 8.894531 139.347656 8.894531 139.023438 L 8.894531 101.472656 C 8.894531 101.152344 8.957031 100.839844 9.078125 100.539062 C 9.203125 100.242188 9.378906 99.976562 9.605469 99.75 C 9.835938 99.519531 10.097656 99.34375 10.398438 99.222656 C 10.695312 99.097656 11.007812 99.035156 11.328125 99.035156 Z M 11.328125 99.035156 "/>
<path style="fill:none;stroke-width:1.5;stroke-linecap:round;stroke-linejoin:round;stroke:rgb(8.628845%,15.689087%,92.549133%);stroke-opacity:1;stroke-miterlimit:4;" d="M 40.080582 183.800274 L 67.18838 183.800274 " transform="matrix(0.541242,0,0,0.54205,-3.220633,7.61718)"/>
<path style="fill:none;stroke-width:1.5;stroke-linecap:round;stroke-linejoin:round;stroke:rgb(8.628845%,15.689087%,92.549133%);stroke-opacity:1;stroke-miterlimit:4;" d="M 40.080582 199.834604 L 95.847876 199.834604 M 108.441888 199.834604 L 131.31319 199.834604 " transform="matrix(0.541242,0,0,0.54205,-3.220633,7.61718)"/>
<path style="fill:none;stroke-width:1.5;stroke-linecap:round;stroke-linejoin:round;stroke:rgb(8.628845%,15.689087%,92.549133%);stroke-opacity:1;stroke-miterlimit:4;" d="M 40.080582 215.861727 L 66.553267 215.861727 M 81.095922 215.861727 L 103.519758 215.861727 M 110.83078 215.861727 L 131.31319 215.861727 " transform="matrix(0.541242,0,0,0.54205,-3.220633,7.61718)"/>
<path style="fill:none;stroke-width:1.5;stroke-linecap:round;stroke-linejoin:round;stroke:rgb(100%,100%,100%);stroke-opacity:1;stroke-miterlimit:4;" d="M 40.080582 231.896056 L 99.254394 231.896056 " transform="matrix(0.541242,0,0,0.54205,-3.220633,7.61718)"/>
<path style=" stroke:none;fill-rule:nonzero;fill:rgb(88.238525%,89.408875%,100%);fill-opacity:1;" d="M 225.117188 198.964844 L 265.464844 198.964844 C 265.636719 198.964844 265.804688 199 265.964844 199.066406 C 266.125 199.132812 266.265625 199.226562 266.386719 199.347656 C 266.507812 199.472656 266.601562 199.613281 266.667969 199.769531 C 266.734375 199.929688 266.769531 200.097656 266.769531 200.269531 L 266.769531 213.304688 C 266.769531 213.476562 266.734375 213.644531 266.667969 213.804688 C 266.601562 213.964844 266.507812 214.105469 266.386719 214.226562 C 266.265625 214.347656 266.125 214.441406 265.964844 214.507812 C 265.804688 214.574219 265.636719 214.609375 265.464844 214.609375 L 225.117188 214.609375 C 224.945312 214.609375 224.78125 214.574219 224.621094 214.507812 C 224.460938 214.441406 224.320312 214.347656 224.199219 214.226562 C 224.078125 214.105469 223.984375 213.964844 223.917969 213.804688 C 223.851562 213.644531 223.816406 213.476562 223.816406 213.304688 L 223.816406 200.269531 C 223.816406 200.097656 223.851562 199.929688 223.917969 199.769531 C 223.984375 199.613281 224.078125 199.472656 224.199219 199.347656 C 224.320312 199.226562 224.460938 199.132812 224.621094 199.066406 C 224.78125 199 224.945312 198.964844 225.117188 198.964844 Z M 225.117188 198.964844 "/>
<path style=" stroke:none;fill-rule:nonzero;fill:rgb(88.238525%,89.408875%,100%);fill-opacity:1;" d="M 230.757812 194.621094 L 260.257812 194.621094 C 260.433594 194.621094 260.597656 194.65625 260.757812 194.722656 C 260.917969 194.789062 261.058594 194.882812 261.179688 195.003906 C 261.300781 195.125 261.394531 195.265625 261.460938 195.425781 C 261.527344 195.585938 261.5625 195.753906 261.5625 195.925781 L 261.5625 208.960938 C 261.5625 209.132812 261.527344 209.300781 261.460938 209.457031 C 261.394531 209.617188 261.300781 209.757812 261.179688 209.882812 C 261.058594 210.003906 260.917969 210.097656 260.757812 210.164062 C 260.597656 210.230469 260.433594 210.261719 260.257812 210.261719 L 230.757812 210.261719 C 230.585938 210.261719 230.421875 210.230469 230.261719 210.164062 C 230.101562 210.097656 229.960938 210.003906 229.839844 209.882812 C 229.714844 209.757812 229.621094 209.617188 229.554688 209.457031 C 229.488281 209.300781 229.457031 209.132812 229.457031 208.960938 L 229.457031 195.925781 C 229.457031 195.753906 229.488281 195.585938 229.554688 195.425781 C 229.621094 195.265625 229.714844 195.125 229.839844 195.003906 C 229.960938 194.882812 230.101562 194.789062 230.261719 194.722656 C 230.421875 194.65625 230.585938 194.621094 230.757812 194.621094 Z M 230.757812 194.621094 "/>
<path style="fill:none;stroke-width:1.5;stroke-linecap:round;stroke-linejoin:miter;stroke:rgb(72.549438%,13.729858%,100%);stroke-opacity:1;stroke-miterlimit:4;" d="M 488.809906 376.255468 L 492.418506 376.255468 " transform="matrix(0.541242,0,0,0.54205,-3.220633,7.61718)"/>
<path style="fill:none;stroke-width:1.5;stroke-linecap:round;stroke-linejoin:miter;stroke:rgb(100%,100%,100%);stroke-opacity:1;stroke-miterlimit:4;" d="M 480.798816 376.255468 L 484.400198 376.255468 " transform="matrix(0.541242,0,0,0.54205,-3.220633,7.61718)"/>
<path style=" stroke:none;fill-rule:nonzero;fill:rgb(71.759033%,74.119568%,99.21875%);fill-opacity:1;" d="M 229.457031 214.609375 L 261.5625 214.609375 L 261.5625 220.691406 L 229.457031 220.691406 Z M 229.457031 214.609375 "/>
<path style=" stroke:none;fill-rule:nonzero;fill:rgb(71.759033%,74.119568%,99.21875%);fill-opacity:0.6157;" d="M 229.457031 214.609375 L 261.5625 214.609375 L 261.5625 217.214844 L 229.457031 217.214844 Z M 229.457031 214.609375 "/>
<path style=" stroke:none;fill-rule:nonzero;fill:rgb(71.759033%,74.119568%,99.21875%);fill-opacity:1;" d="M 229.457031 236.332031 L 261.5625 236.332031 L 261.5625 242.414062 L 229.457031 242.414062 Z M 229.457031 236.332031 "/>
<path style=" stroke:none;fill-rule:nonzero;fill:rgb(71.759033%,74.119568%,99.21875%);fill-opacity:0.6157;" d="M 229.457031 236.332031 L 261.5625 236.332031 L 261.5625 238.9375 L 229.457031 238.9375 Z M 229.457031 236.332031 "/>
<path style=" stroke:none;fill-rule:nonzero;fill:rgb(88.238525%,89.408875%,100%);fill-opacity:1;" d="M 225.117188 220.691406 L 265.464844 220.691406 C 265.636719 220.691406 265.804688 220.722656 265.964844 220.789062 C 266.125 220.855469 266.265625 220.949219 266.386719 221.074219 C 266.507812 221.195312 266.601562 221.335938 266.667969 221.496094 C 266.734375 221.65625 266.769531 221.820312 266.769531 221.996094 L 266.769531 235.027344 C 266.769531 235.203125 266.734375 235.367188 266.667969 235.527344 C 266.601562 235.6875 266.507812 235.828125 266.386719 235.949219 C 266.265625 236.074219 266.125 236.167969 265.964844 236.234375 C 265.804688 236.300781 265.636719 236.332031 265.464844 236.332031 L 225.117188 236.332031 C 224.945312 236.332031 224.78125 236.300781 224.621094 236.234375 C 224.460938 236.167969 224.320312 236.074219 224.199219 235.949219 C 224.078125 235.828125 223.984375 235.6875 223.917969 235.527344 C 223.851562 235.367188 223.816406 235.203125 223.816406 235.027344 L 223.816406 221.996094 C 223.816406 221.820312 223.851562 221.65625 223.917969 221.496094 C 223.984375 221.335938 224.078125 221.195312 224.199219 221.074219 C 224.320312 220.949219 224.460938 220.855469 224.621094 220.789062 C 224.78125 220.722656 224.945312 220.691406 225.117188 220.691406 Z M 225.117188 220.691406 "/>
<path style="fill:none;stroke-width:1.5;stroke-linecap:round;stroke-linejoin:miter;stroke:rgb(72.549438%,13.729858%,100%);stroke-opacity:1;stroke-miterlimit:4;" d="M 488.809906 416.337689 L 492.418506 416.337689 " transform="matrix(0.541242,0,0,0.54205,-3.220633,7.61718)"/>
<path style="fill:none;stroke-width:1.5;stroke-linecap:round;stroke-linejoin:miter;stroke:rgb(100%,100%,100%);stroke-opacity:1;stroke-miterlimit:4;" d="M 480.798816 416.337689 L 484.400198 416.337689 " transform="matrix(0.541242,0,0,0.54205,-3.220633,7.61718)"/>
<g clip-path="url(#clip6)" clip-rule="nonzero">
<path style=" stroke:none;fill-rule:nonzero;fill:rgb(88.238525%,89.408875%,100%);fill-opacity:1;" d="M 225.117188 242.414062 L 265.464844 242.414062 C 265.636719 242.414062 265.804688 242.449219 265.964844 242.515625 C 266.125 242.582031 266.265625 242.675781 266.386719 242.796875 C 266.507812 242.917969 266.601562 243.058594 266.667969 243.21875 C 266.734375 243.378906 266.769531 243.546875 266.769531 243.71875 L 266.769531 256.753906 C 266.769531 256.925781 266.734375 257.09375 266.667969 257.25 C 266.601562 257.410156 266.507812 257.550781 266.386719 257.675781 C 266.265625 257.796875 266.125 257.890625 265.964844 257.957031 C 265.804688 258.023438 265.636719 258.058594 265.464844 258.058594 L 225.117188 258.058594 C 224.945312 258.058594 224.78125 258.023438 224.621094 257.957031 C 224.460938 257.890625 224.320312 257.796875 224.199219 257.675781 C 224.078125 257.550781 223.984375 257.410156 223.917969 257.25 C 223.851562 257.09375 223.816406 256.925781 223.816406 256.753906 L 223.816406 243.71875 C 223.816406 243.546875 223.851562 243.378906 223.917969 243.21875 C 223.984375 243.058594 224.078125 242.917969 224.199219 242.796875 C 224.320312 242.675781 224.460938 242.582031 224.621094 242.515625 C 224.78125 242.449219 224.945312 242.414062 225.117188 242.414062 Z M 225.117188 242.414062 "/>
</g>
<path style="fill:none;stroke-width:1.5;stroke-linecap:round;stroke-linejoin:miter;stroke:rgb(72.549438%,13.729858%,100%);stroke-opacity:1;stroke-miterlimit:4;" d="M 488.809906 456.412704 L 492.418506 456.412704 " transform="matrix(0.541242,0,0,0.54205,-3.220633,7.61718)"/>
<path style="fill:none;stroke-width:1.5;stroke-linecap:round;stroke-linejoin:miter;stroke:rgb(100%,100%,100%);stroke-opacity:1;stroke-miterlimit:4;" d="M 480.798816 456.412704 L 484.400198 456.412704 " transform="matrix(0.541242,0,0,0.54205,-3.220633,7.61718)"/>
<g clip-path="url(#clip7)" clip-rule="nonzero">
<path style="fill:none;stroke-width:1;stroke-linecap:butt;stroke-linejoin:miter;stroke:rgb(0%,3.138733%,34.509277%);stroke-opacity:1;stroke-miterlimit:4;" d="M 8.606379 462.329191 L 467.64908 462.840848 M 480.690558 462.840848 L 501.396701 462.840848 " transform="matrix(0.541242,0,0,0.54205,-3.220633,7.61718)"/>
</g>
<path style=" stroke:none;fill-rule:evenodd;fill:rgb(98.81897%,57.649231%,50.588989%);fill-opacity:1;" d="M 96.875 85.507812 L 94.199219 95.992188 C 94.085938 96.4375 94.0625 96.886719 94.128906 97.34375 C 94.195312 97.800781 94.34375 98.222656 94.578125 98.621094 C 94.8125 99.015625 95.113281 99.351562 95.480469 99.625 C 95.847656 99.902344 96.253906 100.097656 96.699219 100.210938 C 96.765625 100.226562 96.832031 100.242188 96.902344 100.257812 C 97.398438 100.351562 97.898438 100.355469 98.394531 100.269531 C 98.894531 100.179688 99.359375 100.007812 99.796875 99.746094 C 100.230469 99.488281 100.605469 99.160156 100.917969 98.761719 C 101.230469 98.363281 101.464844 97.921875 101.617188 97.441406 L 104.867188 87.101562 Z M 96.875 85.507812 "/>
<path style=" stroke:none;fill-rule:evenodd;fill:rgb(98.81897%,57.649231%,50.588989%);fill-opacity:1;" d="M 100.304688 93.660156 L 118.421875 94.050781 C 109.949219 97.773438 103.28125 99.851562 98.414062 100.292969 Z M 100.304688 93.660156 "/>
<path style=" stroke:none;fill-rule:evenodd;fill:rgb(98.81897%,57.649231%,50.588989%);fill-opacity:1;" d="M 124.925781 190.9375 L 125.480469 195.949219 L 137.550781 195.949219 L 131.089844 192.261719 L 131.089844 190.574219 Z M 124.925781 190.9375 "/>
<path style=" stroke:none;fill-rule:evenodd;fill:rgb(0%,3.138733%,34.509277%);fill-opacity:1;" d="M 124.925781 192.855469 L 125.480469 195.949219 L 137.550781 195.949219 L 132.402344 192.855469 C 132.167969 194.183594 131.472656 194.832031 130.3125 194.800781 C 129.148438 194.769531 127.355469 194.121094 124.925781 192.855469 Z M 124.925781 192.855469 "/>
<path style=" stroke:none;fill-rule:evenodd;fill:rgb(98.81897%,57.649231%,50.588989%);fill-opacity:1;" d="M 79.359375 170.511719 L 75.089844 173.21875 L 83.550781 183.246094 L 82.3125 176.378906 L 83.6875 174.4375 Z M 79.359375 170.511719 "/>
<path style=" stroke:none;fill-rule:evenodd;fill:rgb(0%,3.138733%,34.509277%);fill-opacity:1;" d="M 77.640625 171.382812 L 74.9375 173.347656 L 83.746094 183.550781 L 82.605469 177.308594 C 81.441406 177.980469 80.496094 177.863281 79.773438 176.953125 C 79.050781 176.042969 78.339844 174.1875 77.640625 171.382812 Z M 77.640625 171.382812 "/>
<path style=" stroke:none;fill-rule:evenodd;fill:rgb(98.81897%,57.649231%,50.588989%);fill-opacity:1;" d="M 103.882812 107.144531 L 99.542969 144.378906 C 99.503906 144.746094 99.5 145.113281 99.542969 145.484375 C 99.582031 145.851562 99.664062 146.210938 99.789062 146.5625 C 99.914062 146.910156 100.074219 147.242188 100.273438 147.554688 C 100.472656 147.867188 100.703125 148.152344 100.96875 148.414062 C 101.230469 148.671875 101.523438 148.898438 101.835938 149.09375 C 102.152344 149.285156 102.488281 149.441406 102.839844 149.558594 C 103.191406 149.675781 103.550781 149.75 103.917969 149.785156 C 104.289062 149.820312 104.65625 149.8125 105.023438 149.761719 C 105.925781 149.640625 106.792969 149.378906 107.617188 148.988281 C 108.441406 148.59375 109.1875 148.082031 109.851562 147.457031 C 110.515625 146.832031 111.070312 146.117188 111.515625 145.316406 C 111.957031 144.515625 112.269531 143.667969 112.445312 142.769531 L 119.527344 107.144531 Z M 103.882812 107.144531 "/>
<path style=" stroke:none;fill-rule:evenodd;fill:rgb(98.81897%,57.649231%,50.588989%);fill-opacity:1;" d="M 99.792969 140.773438 L 79.359375 170.511719 L 83.214844 175.035156 L 110.605469 147.191406 C 110.894531 146.898438 111.148438 146.574219 111.363281 146.226562 C 111.578125 145.875 111.753906 145.503906 111.886719 145.117188 C 112.019531 144.726562 112.105469 144.324219 112.148438 143.917969 C 112.191406 143.507812 112.1875 143.097656 112.136719 142.6875 C 112.085938 142.28125 111.992188 141.882812 111.851562 141.496094 C 111.710938 141.109375 111.53125 140.742188 111.308594 140.394531 C 111.085938 140.046875 110.828125 139.730469 110.53125 139.445312 C 110.238281 139.15625 109.917969 138.90625 109.566406 138.691406 C 109.171875 138.449219 108.761719 138.25 108.328125 138.085938 C 107.898438 137.925781 107.457031 137.804688 107.003906 137.726562 C 106.546875 137.648438 106.089844 137.617188 105.632812 137.625 C 105.171875 137.632812 104.714844 137.6875 104.265625 137.78125 C 103.816406 137.878906 103.378906 138.015625 102.953125 138.195312 C 102.53125 138.375 102.125 138.59375 101.742188 138.847656 C 101.359375 139.105469 101.003906 139.394531 100.679688 139.71875 C 100.351562 140.042969 100.054688 140.394531 99.792969 140.773438 Z M 99.792969 140.773438 "/>
<path style=" stroke:none;fill-rule:evenodd;fill:rgb(98.81897%,57.649231%,50.588989%);fill-opacity:1;" d="M 109.054688 107.144531 L 119.378906 143.902344 L 124.925781 191.101562 L 131.132812 191.101562 L 132.460938 143.238281 L 126.515625 107.144531 Z M 109.054688 107.144531 "/>
<path style=" stroke:none;fill-rule:evenodd;fill:rgb(8.239746%,15.289307%,91.758728%);fill-opacity:1;" d="M 98.539062 78.355469 L 94.839844 92.34375 L 104.023438 92.941406 L 107.640625 80.328125 Z M 98.539062 78.355469 "/>
<path style=" stroke:none;fill-rule:evenodd;fill:rgb(98.81897%,57.649231%,50.588989%);fill-opacity:1;" d="M 121.488281 52.722656 C 121.859375 54.382812 122.097656 55.5625 122.203125 56.261719 C 122.980469 61.324219 120.492188 63.582031 118.558594 63.828125 L 117.339844 55.058594 Z M 121.488281 52.722656 "/>
<path style=" stroke:none;fill-rule:evenodd;fill:rgb(100%,68.629456%,63.139343%);fill-opacity:1;" d="M 115.320312 65.667969 L 120.664062 66.886719 C 122.59375 67.328125 124.351562 68.148438 125.929688 69.347656 C 127.507812 70.542969 128.769531 72.015625 129.714844 73.757812 L 135.074219 83.628906 C 135.386719 84.207031 135.597656 84.820312 135.699219 85.46875 C 135.804688 86.121094 135.796875 86.769531 135.679688 87.414062 C 135.558594 88.0625 135.335938 88.671875 135.007812 89.242188 C 134.683594 89.8125 134.269531 90.3125 133.769531 90.742188 C 133.558594 90.921875 133.332031 91.078125 133.082031 91.207031 C 132.835938 91.339844 132.578125 91.441406 132.3125 91.511719 C 132.042969 91.582031 131.769531 91.625 131.488281 91.636719 C 131.210938 91.644531 130.933594 91.625 130.660156 91.574219 C 130.386719 91.523438 130.125 91.441406 129.867188 91.328125 C 129.613281 91.21875 129.371094 91.082031 129.148438 90.914062 C 128.921875 90.75 128.71875 90.5625 128.539062 90.351562 C 128.355469 90.140625 128.199219 89.910156 128.070312 89.664062 Z M 115.320312 65.667969 "/>
<path style=" stroke:none;fill-rule:evenodd;fill:rgb(98.81897%,57.649231%,50.588989%);fill-opacity:1;" d="M 129.804688 83.191406 C 142.898438 74.640625 150.5625 69.472656 152.796875 67.6875 C 153.15625 67.398438 154.882812 65.886719 155.328125 65.886719 C 155.769531 65.886719 155.019531 66.613281 154.898438 67.183594 C 154.773438 67.757812 155.175781 69.265625 154.667969 69.683594 C 154.65625 69.695312 154.03125 70.09375 152.796875 70.882812 L 135.640625 90.671875 C 135.417969 90.925781 135.175781 91.152344 134.90625 91.351562 C 134.636719 91.550781 134.347656 91.71875 134.039062 91.855469 C 133.734375 91.992188 133.414062 92.09375 133.085938 92.15625 C 132.757812 92.222656 132.425781 92.253906 132.089844 92.246094 C 131.753906 92.238281 131.425781 92.195312 131.097656 92.113281 C 130.773438 92.03125 130.460938 91.917969 130.160156 91.769531 C 129.859375 91.617188 129.578125 91.4375 129.316406 91.226562 C 129.058594 91.015625 128.820312 90.777344 128.613281 90.515625 C 128.410156 90.257812 128.230469 89.980469 128.082031 89.6875 C 127.929688 89.394531 127.8125 89.089844 127.722656 88.773438 C 127.632812 88.457031 127.574219 88.132812 127.546875 87.804688 C 127.519531 87.476562 127.523438 87.148438 127.5625 86.820312 C 127.601562 86.492188 127.667969 86.171875 127.769531 85.859375 C 127.871094 85.546875 128 85.246094 128.160156 84.957031 C 128.320312 84.667969 128.507812 84.398438 128.722656 84.148438 C 128.933594 83.898438 129.167969 83.667969 129.425781 83.464844 C 129.546875 83.367188 129.671875 83.277344 129.804688 83.191406 Z M 129.804688 83.191406 "/>
<path style=" stroke:none;fill-rule:evenodd;fill:rgb(13.729858%,21.179199%,100%);fill-opacity:1;" d="M 115.355469 65.886719 L 121.023438 67.183594 C 122.859375 67.601562 124.539062 68.367188 126.0625 69.476562 C 127.585938 70.585938 128.832031 71.949219 129.796875 73.566406 L 136.527344 84.851562 C 136.699219 85.140625 136.839844 85.441406 136.949219 85.753906 C 137.0625 86.070312 137.144531 86.390625 137.191406 86.722656 C 137.238281 87.050781 137.253906 87.382812 137.238281 87.71875 C 137.222656 88.050781 137.171875 88.378906 137.089844 88.703125 C 137.007812 89.027344 136.898438 89.339844 136.753906 89.640625 C 136.609375 89.941406 136.441406 90.226562 136.242188 90.496094 C 136.042969 90.761719 135.816406 91.007812 135.570312 91.234375 C 135.324219 91.457031 135.058594 91.652344 134.769531 91.824219 C 134.75 91.835938 134.730469 91.851562 134.707031 91.863281 C 134.425781 92.023438 134.132812 92.15625 133.828125 92.261719 C 133.519531 92.367188 133.207031 92.441406 132.882812 92.484375 C 132.5625 92.523438 132.242188 92.535156 131.917969 92.515625 C 131.59375 92.492188 131.277344 92.441406 130.964844 92.355469 C 130.648438 92.273438 130.347656 92.160156 130.058594 92.015625 C 129.765625 91.871094 129.492188 91.703125 129.234375 91.503906 C 128.980469 91.308594 128.742188 91.085938 128.53125 90.84375 C 128.316406 90.597656 128.128906 90.335938 127.964844 90.054688 C 127.929688 89.996094 127.898438 89.933594 127.863281 89.871094 Z M 115.355469 65.886719 "/>
<path style=" stroke:none;fill-rule:evenodd;fill:rgb(13.729858%,21.179199%,100%);fill-opacity:1;" d="M 103.046875 85.421875 C 103.992188 88.125 104.414062 90.90625 104.3125 93.769531 C 104.238281 96.765625 103.3125 101.226562 101.53125 107.144531 L 128.476562 107.144531 L 125.570312 84.683594 L 115.75 65.5625 L 104.3125 65.5625 Z M 103.046875 85.421875 "/>
<path style=" stroke:none;fill-rule:evenodd;fill:rgb(72.549438%,13.729858%,100%);fill-opacity:1;" d="M 102.78125 107.144531 L 97.777344 136.386719 L 133.765625 136.386719 L 127.9375 107.144531 Z M 102.78125 107.144531 "/>
<path style=" stroke:none;fill-rule:evenodd;fill:rgb(0%,3.138733%,34.509277%);fill-opacity:1;" d="M 122.347656 52.539062 L 117.339844 55.058594 C 121.734375 71.199219 119.808594 82.074219 111.566406 87.679688 C 99.199219 96.085938 81.148438 79.253906 96.574219 65.675781 C 103.265625 59.785156 107.128906 51.480469 112.484375 49.394531 C 116.722656 47.742188 120.011719 48.789062 122.347656 52.539062 Z M 122.347656 52.539062 "/>
<path style=" stroke:none;fill-rule:evenodd;fill:rgb(98.81897%,57.649231%,50.588989%);fill-opacity:1;" d="M 208.6875 125.296875 L 196.664062 135.21875 C 196.132812 135.660156 195.691406 136.175781 195.339844 136.765625 C 194.984375 137.359375 194.746094 137.996094 194.613281 138.671875 C 194.480469 139.347656 194.46875 140.027344 194.574219 140.710938 C 194.679688 141.390625 194.898438 142.035156 195.226562 142.640625 C 195.371094 142.90625 195.542969 143.152344 195.738281 143.378906 C 195.9375 143.605469 196.15625 143.808594 196.398438 143.988281 C 196.640625 144.167969 196.898438 144.316406 197.171875 144.441406 C 197.449219 144.5625 197.730469 144.652344 198.027344 144.714844 C 198.320312 144.773438 198.617188 144.800781 198.917969 144.796875 C 199.21875 144.792969 199.515625 144.753906 199.808594 144.6875 C 200.101562 144.617188 200.382812 144.515625 200.652344 144.382812 C 200.921875 144.253906 201.175781 144.09375 201.414062 143.90625 L 212.644531 135.027344 C 213.242188 134.554688 213.75 133.996094 214.167969 133.355469 C 214.585938 132.71875 214.890625 132.027344 215.085938 131.289062 C 215.277344 130.550781 215.347656 129.800781 215.296875 129.035156 C 215.246094 128.273438 215.078125 127.539062 214.789062 126.832031 C 214.671875 126.550781 214.523438 126.28125 214.34375 126.035156 C 214.167969 125.785156 213.960938 125.5625 213.730469 125.359375 C 213.5 125.160156 213.25 124.988281 212.976562 124.847656 C 212.707031 124.707031 212.421875 124.597656 212.125 124.523438 C 211.828125 124.449219 211.527344 124.410156 211.222656 124.40625 C 210.914062 124.402344 210.613281 124.433594 210.316406 124.5 C 210.015625 124.570312 209.730469 124.667969 209.453125 124.804688 C 209.179688 124.9375 208.925781 125.105469 208.6875 125.296875 Z M 208.6875 125.296875 "/>
<path style=" stroke:none;fill-rule:evenodd;fill:rgb(98.81897%,57.649231%,50.588989%);fill-opacity:1;" d="M 201.714844 137.5625 L 186.210938 106.105469 C 185.667969 104.960938 185.277344 104.308594 185.035156 104.144531 C 184.425781 103.734375 184.757812 105.398438 184.265625 105.160156 C 182.375 104.25 180.414062 102.460938 180.128906 102.589844 C 179.726562 102.769531 180.625 104.566406 182.824219 107.980469 L 192.890625 142.398438 C 192.984375 142.71875 193.113281 143.023438 193.273438 143.316406 C 193.4375 143.605469 193.628906 143.878906 193.847656 144.125 C 194.070312 144.375 194.316406 144.59375 194.589844 144.789062 C 194.859375 144.980469 195.148438 145.144531 195.453125 145.273438 C 195.761719 145.402344 196.078125 145.496094 196.40625 145.554688 C 196.734375 145.613281 197.0625 145.632812 197.394531 145.617188 C 197.726562 145.601562 198.054688 145.550781 198.375 145.464844 C 198.695312 145.375 199.003906 145.253906 199.296875 145.097656 C 199.617188 144.925781 199.921875 144.722656 200.207031 144.492188 C 200.488281 144.261719 200.746094 144.003906 200.980469 143.726562 C 201.214844 143.445312 201.421875 143.144531 201.597656 142.824219 C 201.773438 142.503906 201.917969 142.167969 202.03125 141.820312 C 202.140625 141.472656 202.21875 141.117188 202.261719 140.753906 C 202.304688 140.390625 202.316406 140.023438 202.289062 139.660156 C 202.261719 139.296875 202.199219 138.9375 202.101562 138.582031 C 202.007812 138.230469 201.878906 137.890625 201.714844 137.5625 Z M 201.714844 137.5625 "/>
<path style=" stroke:none;fill-rule:evenodd;fill:rgb(98.81897%,57.649231%,50.588989%);fill-opacity:1;" d="M 239.511719 129.472656 L 253.601562 147.808594 C 253.953125 148.261719 254.375 148.636719 254.867188 148.929688 C 255.359375 149.226562 255.886719 149.417969 256.453125 149.511719 C 257.019531 149.601562 257.585938 149.585938 258.144531 149.464844 C 258.703125 149.339844 259.222656 149.117188 259.699219 148.796875 C 259.914062 148.652344 260.117188 148.484375 260.300781 148.296875 C 260.484375 148.113281 260.648438 147.910156 260.792969 147.691406 C 260.9375 147.472656 261.058594 147.242188 261.15625 147 C 261.253906 146.757812 261.328125 146.511719 261.378906 146.253906 C 261.429688 145.996094 261.453125 145.738281 261.453125 145.476562 C 261.453125 145.214844 261.425781 144.953125 261.371094 144.699219 C 261.320312 144.441406 261.242188 144.191406 261.144531 143.953125 C 261.042969 143.710938 260.917969 143.480469 260.773438 143.265625 C 260.726562 143.195312 260.675781 143.128906 260.625 143.0625 L 246.535156 124.726562 C 246.1875 124.269531 245.765625 123.898438 245.273438 123.601562 C 244.78125 123.308594 244.25 123.113281 243.683594 123.023438 C 243.117188 122.929688 242.554688 122.945312 241.996094 123.070312 C 241.433594 123.195312 240.917969 123.414062 240.441406 123.738281 C 240.222656 123.882812 240.023438 124.050781 239.839844 124.234375 C 239.65625 124.421875 239.492188 124.625 239.347656 124.839844 C 239.203125 125.058594 239.082031 125.289062 238.984375 125.53125 C 238.882812 125.773438 238.808594 126.023438 238.761719 126.28125 C 238.710938 126.539062 238.6875 126.796875 238.6875 127.058594 C 238.6875 127.320312 238.714844 127.578125 238.765625 127.835938 C 238.820312 128.09375 238.894531 128.339844 238.996094 128.582031 C 239.097656 128.824219 239.222656 129.054688 239.367188 129.269531 C 239.414062 129.339844 239.460938 129.40625 239.511719 129.472656 Z M 239.511719 129.472656 "/>
<g clip-path="url(#clip8)" clip-rule="nonzero">
<path style=" stroke:none;fill-rule:evenodd;fill:rgb(0%,3.138733%,34.509277%);fill-opacity:1;" d="M 210.671875 251.105469 L 210.671875 253.3125 C 209.097656 253.667969 207.636719 254.292969 206.292969 255.1875 C 205.046875 256.230469 203.945312 257.410156 202.992188 258.730469 L 217.292969 258.730469 L 217.292969 251.105469 Z M 210.671875 251.105469 "/>
</g>
<path style=" stroke:none;fill-rule:evenodd;fill:rgb(38.038635%,43.139648%,94.898987%);fill-opacity:1;" d="M 213.230469 166.117188 L 206.246094 204.242188 L 210.226562 251.363281 L 219.214844 251.363281 L 218.84375 205.09375 C 223.867188 191.382812 226.492188 184.273438 226.71875 183.769531 C 228.167969 180.546875 230.3125 174.660156 233.15625 166.117188 Z M 213.230469 166.117188 "/>
<path style=" stroke:none;fill-rule:evenodd;fill:rgb(3.138733%,9.01947%,72.158813%);fill-opacity:0.2235;" d="M 218.84375 205.09375 L 227.019531 183.195312 L 233.152344 166.542969 L 220.035156 166.117188 Z M 218.84375 205.09375 "/>
<path style=" stroke:none;fill-rule:evenodd;fill:rgb(38.038635%,43.139648%,94.898987%);fill-opacity:1;" d="M 225.855469 166.117188 L 234.242188 251.105469 L 242.070312 250.894531 L 241.390625 166.117188 Z M 225.855469 166.117188 "/>
<g clip-path="url(#clip9)" clip-rule="nonzero">
<path style=" stroke:none;fill-rule:evenodd;fill:rgb(0%,3.138733%,34.509277%);fill-opacity:1;" d="M 234.925781 250.941406 L 234.925781 253.320312 C 232.566406 253.957031 230.894531 254.636719 229.914062 255.351562 C 228.78125 256.238281 227.859375 257.308594 227.148438 258.566406 L 241.335938 258.566406 L 241.335938 250.941406 Z M 234.925781 250.941406 "/>
</g>
<path style=" stroke:none;fill-rule:evenodd;fill:rgb(72.549438%,13.729858%,100%);fill-opacity:1;" d="M 200.476562 131.027344 L 203.40625 143.824219 L 213.0625 136.589844 L 211.773438 166.402344 L 244.054688 166.402344 L 239.773438 146.007812 L 239.5 133.878906 L 246.457031 140.3125 L 253.292969 131.027344 C 246.007812 121.664062 237.734375 116.582031 228.476562 115.78125 C 219.214844 114.980469 209.882812 120.0625 200.476562 131.027344 Z M 200.476562 131.027344 "/>
<path style=" stroke:none;fill-rule:evenodd;fill:rgb(98.81897%,57.649231%,50.588989%);fill-opacity:1;" d="M 222.847656 109.183594 L 222.742188 116.859375 C 222.734375 117.3125 222.816406 117.75 222.980469 118.175781 C 223.148438 118.597656 223.390625 118.96875 223.707031 119.296875 C 224.023438 119.621094 224.390625 119.875 224.808594 120.054688 C 225.222656 120.234375 225.660156 120.328125 226.113281 120.332031 C 226.203125 120.332031 226.289062 120.332031 226.378906 120.324219 C 226.878906 120.292969 227.351562 120.171875 227.804688 119.957031 C 228.253906 119.742188 228.652344 119.453125 228.992188 119.085938 C 229.332031 118.71875 229.589844 118.304688 229.773438 117.835938 C 229.953125 117.371094 230.042969 116.886719 230.039062 116.386719 L 229.976562 109.183594 Z M 222.847656 109.183594 "/>
<path style=" stroke:none;fill-rule:evenodd;fill:rgb(98.81897%,57.649231%,50.588989%);fill-opacity:0.2745;" d="M 222.847656 112.378906 L 222.847656 116.917969 C 224.386719 116.671875 225.871094 116.230469 227.292969 115.589844 C 228.363281 114.921875 229.257812 114.074219 229.976562 113.039062 L 229.976562 109.183594 Z M 222.847656 112.378906 "/>
<path style=" stroke:none;fill-rule:evenodd;fill:rgb(0%,3.138733%,34.509277%);fill-opacity:1;" d="M 218.75 103.992188 C 221.421875 105.574219 224.132812 105.574219 226.882812 103.992188 C 229.632812 102.40625 231.007812 103.195312 231.007812 106.359375 C 231.835938 105.707031 232.46875 104.90625 232.917969 103.953125 C 233.363281 103 233.570312 101.996094 233.542969 100.945312 C 233.542969 97.601562 228.738281 93.234375 222.847656 95.777344 C 218.917969 97.472656 217.554688 100.210938 218.75 103.992188 Z M 218.75 103.992188 "/>
<path style=" stroke:none;fill-rule:evenodd;fill:rgb(98.81897%,57.649231%,50.588989%);fill-opacity:1;" d="M 218.925781 103.398438 C 219.035156 110.269531 221.011719 113.707031 224.863281 113.707031 C 228.714844 113.707031 230.988281 110.613281 231.6875 104.429688 L 231.113281 100.382812 C 228.8125 102.691406 226.875 104.042969 225.308594 104.429688 C 223.742188 104.816406 221.613281 104.472656 218.925781 103.398438 Z M 218.925781 103.398438 "/>
<path style=" stroke:none;fill-rule:evenodd;fill:rgb(98.81897%,57.649231%,50.588989%);fill-opacity:1;" d="M 229.285156 105.808594 C 229.960938 104.214844 230.851562 103.667969 231.953125 104.167969 C 233.601562 104.917969 232.382812 108.507812 230.71875 108.726562 "/>
<path style=" stroke:none;fill-rule:evenodd;fill:rgb(98.81897%,57.649231%,50.588989%);fill-opacity:1;" d="M 260.164062 148.488281 C 246.566406 160.761719 238.109375 166.8125 234.792969 166.632812 C 229.460938 166.34375 232.351562 164.890625 234.476562 163.570312 C 236.605469 162.25 233.65625 163.085938 232.867188 162.902344 C 232.339844 162.785156 233.128906 162.246094 235.230469 161.296875 L 237.675781 160.328125 L 253.695312 143.984375 C 254.09375 143.578125 254.546875 143.253906 255.058594 143.011719 C 255.570312 142.769531 256.109375 142.621094 256.671875 142.570312 C 257.234375 142.515625 257.789062 142.5625 258.339844 142.710938 C 258.886719 142.855469 259.390625 143.089844 259.855469 143.417969 C 260.054688 143.558594 260.234375 143.71875 260.398438 143.898438 C 260.5625 144.078125 260.703125 144.277344 260.824219 144.488281 C 260.941406 144.703125 261.035156 144.925781 261.105469 145.160156 C 261.171875 145.394531 261.214844 145.632812 261.230469 145.878906 C 261.246094 146.121094 261.230469 146.363281 261.191406 146.605469 C 261.152344 146.84375 261.085938 147.078125 260.996094 147.304688 C 260.902344 147.53125 260.785156 147.742188 260.644531 147.941406 C 260.503906 148.144531 260.34375 148.324219 260.164062 148.488281 Z M 260.164062 148.488281 "/>
<path style=" stroke:none;fill-rule:nonzero;fill:rgb(88.238525%,89.408875%,100%);fill-opacity:1;" d="M 12.972656 198.53125 L 53.320312 198.53125 C 53.492188 198.53125 53.65625 198.566406 53.816406 198.632812 C 53.976562 198.699219 54.117188 198.792969 54.238281 198.914062 C 54.363281 199.035156 54.457031 199.175781 54.523438 199.335938 C 54.585938 199.496094 54.621094 199.664062 54.621094 199.835938 L 54.621094 212.871094 C 54.621094 213.042969 54.585938 213.210938 54.523438 213.371094 C 54.457031 213.527344 54.363281 213.667969 54.238281 213.792969 C 54.117188 213.914062 53.976562 214.007812 53.816406 214.074219 C 53.65625 214.140625 53.492188 214.175781 53.320312 214.175781 L 12.972656 214.175781 C 12.800781 214.175781 12.632812 214.140625 12.472656 214.074219 C 12.316406 214.007812 12.175781 213.914062 12.050781 213.792969 C 11.929688 213.667969 11.835938 213.527344 11.769531 213.371094 C 11.703125 213.210938 11.671875 213.042969 11.671875 212.871094 L 11.671875 199.835938 C 11.671875 199.664062 11.703125 199.496094 11.769531 199.335938 C 11.835938 199.175781 11.929688 199.035156 12.050781 198.914062 C 12.175781 198.792969 12.316406 198.699219 12.472656 198.632812 C 12.632812 198.566406 12.800781 198.53125 12.972656 198.53125 Z M 12.972656 198.53125 "/>
<path style="fill:none;stroke-width:1.5;stroke-linecap:round;stroke-linejoin:miter;stroke:rgb(72.549438%,13.729858%,100%);stroke-opacity:1;stroke-miterlimit:4;" d="M 96.851067 375.455553 L 100.452449 375.455553 " transform="matrix(0.541242,0,0,0.54205,-3.220633,7.61718)"/>
<path style="fill:none;stroke-width:1.5;stroke-linecap:round;stroke-linejoin:miter;stroke:rgb(100%,100%,100%);stroke-opacity:1;stroke-miterlimit:4;" d="M 88.832759 375.455553 L 92.441358 375.455553 " transform="matrix(0.541242,0,0,0.54205,-3.220633,7.61718)"/>
<path style=" stroke:none;fill-rule:nonzero;fill:rgb(88.238525%,89.408875%,100%);fill-opacity:1;" d="M 12.972656 176.808594 L 53.320312 176.808594 C 53.492188 176.808594 53.65625 176.839844 53.816406 176.90625 C 53.976562 176.972656 54.117188 177.066406 54.238281 177.191406 C 54.363281 177.3125 54.457031 177.453125 54.523438 177.613281 C 54.585938 177.773438 54.621094 177.9375 54.621094 178.113281 L 54.621094 191.144531 C 54.621094 191.320312 54.585938 191.484375 54.523438 191.644531 C 54.457031 191.804688 54.363281 191.945312 54.238281 192.066406 C 54.117188 192.191406 53.976562 192.285156 53.816406 192.351562 C 53.65625 192.417969 53.492188 192.449219 53.320312 192.449219 L 12.972656 192.449219 C 12.800781 192.449219 12.632812 192.417969 12.472656 192.351562 C 12.316406 192.285156 12.175781 192.191406 12.050781 192.066406 C 11.929688 191.945312 11.835938 191.804688 11.769531 191.644531 C 11.703125 191.484375 11.671875 191.320312 11.671875 191.144531 L 11.671875 178.113281 C 11.671875 177.9375 11.703125 177.773438 11.769531 177.613281 C 11.835938 177.453125 11.929688 177.3125 12.050781 177.191406 C 12.175781 177.066406 12.316406 176.972656 12.472656 176.90625 C 12.632812 176.839844 12.800781 176.808594 12.972656 176.808594 Z M 12.972656 176.808594 "/>
<path style=" stroke:none;fill-rule:nonzero;fill:rgb(88.238525%,89.408875%,100%);fill-opacity:1;" d="M 18.613281 172.464844 L 48.113281 172.464844 C 48.285156 172.464844 48.453125 172.496094 48.609375 172.5625 C 48.769531 172.628906 48.910156 172.722656 49.035156 172.84375 C 49.15625 172.96875 49.25 173.109375 49.316406 173.269531 C 49.382812 173.425781 49.414062 173.59375 49.414062 173.765625 L 49.414062 180.285156 C 49.414062 180.457031 49.382812 180.625 49.316406 180.78125 C 49.25 180.941406 49.15625 181.082031 49.035156 181.207031 C 48.910156 181.328125 48.769531 181.421875 48.609375 181.488281 C 48.453125 181.554688 48.285156 181.585938 48.113281 181.585938 L 18.613281 181.585938 C 18.4375 181.585938 18.273438 181.554688 18.113281 181.488281 C 17.953125 181.421875 17.8125 181.328125 17.691406 181.207031 C 17.570312 181.082031 17.476562 180.941406 17.410156 180.78125 C 17.34375 180.625 17.308594 180.457031 17.308594 180.285156 L 17.308594 173.765625 C 17.308594 173.59375 17.34375 173.425781 17.410156 173.269531 C 17.476562 173.109375 17.570312 172.96875 17.691406 172.84375 C 17.8125 172.722656 17.953125 172.628906 18.113281 172.5625 C 18.273438 172.496094 18.4375 172.464844 18.613281 172.464844 Z M 18.613281 172.464844 "/>
<path style="fill:none;stroke-width:1.5;stroke-linecap:round;stroke-linejoin:miter;stroke:rgb(72.549438%,13.729858%,100%);stroke-opacity:1;stroke-miterlimit:4;" d="M 96.851067 335.380539 L 100.452449 335.380539 " transform="matrix(0.541242,0,0,0.54205,-3.220633,7.61718)"/>
<path style="fill:none;stroke-width:1.5;stroke-linecap:round;stroke-linejoin:miter;stroke:rgb(100%,100%,100%);stroke-opacity:1;stroke-miterlimit:4;" d="M 88.832759 335.380539 L 92.441358 335.380539 " transform="matrix(0.541242,0,0,0.54205,-3.220633,7.61718)"/>
<path style=" stroke:none;fill-rule:nonzero;fill:rgb(71.759033%,74.119568%,99.21875%);fill-opacity:1;" d="M 17.308594 214.175781 L 49.414062 214.175781 L 49.414062 220.257812 L 17.308594 220.257812 Z M 17.308594 214.175781 "/>
<path style=" stroke:none;fill-rule:nonzero;fill:rgb(71.759033%,74.119568%,99.21875%);fill-opacity:0.6157;" d="M 17.308594 214.175781 L 49.414062 214.175781 L 49.414062 216.78125 L 17.308594 216.78125 Z M 17.308594 214.175781 "/>
<path style=" stroke:none;fill-rule:nonzero;fill:rgb(71.759033%,74.119568%,99.21875%);fill-opacity:0.6157;" d="M 17.308594 192.449219 L 49.414062 192.449219 L 49.414062 195.054688 L 17.308594 195.054688 Z M 17.308594 192.449219 "/>
<path style=" stroke:none;fill-rule:nonzero;fill:rgb(71.759033%,74.119568%,99.21875%);fill-opacity:1;" d="M 17.308594 192.449219 L 49.414062 192.449219 L 49.414062 198.53125 L 17.308594 198.53125 Z M 17.308594 192.449219 "/>
<path style=" stroke:none;fill-rule:nonzero;fill:rgb(71.759033%,74.119568%,99.21875%);fill-opacity:0.6157;" d="M 17.308594 192.449219 L 49.414062 192.449219 L 49.414062 195.054688 L 17.308594 195.054688 Z M 17.308594 192.449219 "/>
<path style=" stroke:none;fill-rule:nonzero;fill:rgb(71.759033%,74.119568%,99.21875%);fill-opacity:1;" d="M 17.308594 192.449219 L 49.414062 192.449219 L 49.414062 198.53125 L 17.308594 198.53125 Z M 17.308594 192.449219 "/>
<path style=" stroke:none;fill-rule:nonzero;fill:rgb(71.759033%,74.119568%,99.21875%);fill-opacity:0.6157;" d="M 17.308594 192.449219 L 49.414062 192.449219 L 49.414062 195.054688 L 17.308594 195.054688 Z M 17.308594 192.449219 "/>
<path style=" stroke:none;fill-rule:nonzero;fill:rgb(71.759033%,74.119568%,99.21875%);fill-opacity:1;" d="M 17.308594 235.898438 L 49.414062 235.898438 L 49.414062 241.980469 L 17.308594 241.980469 Z M 17.308594 235.898438 "/>
<path style=" stroke:none;fill-rule:nonzero;fill:rgb(71.759033%,74.119568%,99.21875%);fill-opacity:0.6157;" d="M 17.308594 235.898438 L 49.414062 235.898438 L 49.414062 238.503906 L 17.308594 238.503906 Z M 17.308594 235.898438 "/>
<path style=" stroke:none;fill-rule:nonzero;fill:rgb(88.238525%,89.408875%,100%);fill-opacity:1;" d="M 12.972656 220.257812 L 53.320312 220.257812 C 53.492188 220.257812 53.65625 220.289062 53.816406 220.355469 C 53.976562 220.421875 54.117188 220.515625 54.238281 220.636719 C 54.363281 220.761719 54.457031 220.902344 54.523438 221.0625 C 54.585938 221.222656 54.621094 221.386719 54.621094 221.558594 L 54.621094 234.59375 C 54.621094 234.765625 54.585938 234.933594 54.523438 235.09375 C 54.457031 235.253906 54.363281 235.394531 54.238281 235.515625 C 54.117188 235.636719 53.976562 235.734375 53.816406 235.800781 C 53.65625 235.863281 53.492188 235.898438 53.320312 235.898438 L 12.972656 235.898438 C 12.800781 235.898438 12.632812 235.863281 12.472656 235.800781 C 12.316406 235.734375 12.175781 235.636719 12.050781 235.515625 C 11.929688 235.394531 11.835938 235.253906 11.769531 235.09375 C 11.703125 234.933594 11.671875 234.765625 11.671875 234.59375 L 11.671875 221.558594 C 11.671875 221.386719 11.703125 221.222656 11.769531 221.0625 C 11.835938 220.902344 11.929688 220.761719 12.050781 220.636719 C 12.175781 220.515625 12.316406 220.421875 12.472656 220.355469 C 12.632812 220.289062 12.800781 220.257812 12.972656 220.257812 Z M 12.972656 220.257812 "/>
<path style="fill:none;stroke-width:1.5;stroke-linecap:round;stroke-linejoin:miter;stroke:rgb(72.549438%,13.729858%,100%);stroke-opacity:1;stroke-miterlimit:4;" d="M 96.851067 415.530568 L 100.452449 415.530568 " transform="matrix(0.541242,0,0,0.54205,-3.220633,7.61718)"/>
<path style="fill:none;stroke-width:1.5;stroke-linecap:round;stroke-linejoin:miter;stroke:rgb(100%,100%,100%);stroke-opacity:1;stroke-miterlimit:4;" d="M 88.832759 415.530568 L 92.441358 415.530568 " transform="matrix(0.541242,0,0,0.54205,-3.220633,7.61718)"/>
<path style=" stroke:none;fill-rule:nonzero;fill:rgb(88.238525%,89.408875%,100%);fill-opacity:1;" d="M 12.972656 241.980469 L 53.320312 241.980469 C 53.492188 241.980469 53.65625 242.015625 53.816406 242.082031 C 53.976562 242.144531 54.117188 242.242188 54.238281 242.363281 C 54.363281 242.484375 54.457031 242.625 54.523438 242.785156 C 54.585938 242.945312 54.621094 243.113281 54.621094 243.285156 L 54.621094 256.320312 C 54.621094 256.492188 54.585938 256.65625 54.523438 256.816406 C 54.457031 256.976562 54.363281 257.117188 54.238281 257.242188 C 54.117188 257.363281 53.976562 257.457031 53.816406 257.523438 C 53.65625 257.589844 53.492188 257.621094 53.320312 257.621094 L 12.972656 257.621094 C 12.800781 257.621094 12.632812 257.589844 12.472656 257.523438 C 12.316406 257.457031 12.175781 257.363281 12.050781 257.242188 C 11.929688 257.117188 11.835938 256.976562 11.769531 256.816406 C 11.703125 256.65625 11.671875 256.492188 11.671875 256.320312 L 11.671875 243.285156 C 11.671875 243.113281 11.703125 242.945312 11.769531 242.785156 C 11.835938 242.625 11.929688 242.484375 12.050781 242.363281 C 12.175781 242.242188 12.316406 242.144531 12.472656 242.082031 C 12.632812 242.015625 12.800781 241.980469 12.972656 241.980469 Z M 12.972656 241.980469 "/>
<path style="fill:none;stroke-width:1.5;stroke-linecap:round;stroke-linejoin:miter;stroke:rgb(72.549438%,13.729858%,100%);stroke-opacity:1;stroke-miterlimit:4;" d="M 96.851067 455.612789 L 100.452449 455.612789 " transform="matrix(0.541242,0,0,0.54205,-3.220633,7.61718)"/>
<path style="fill:none;stroke-width:1.5;stroke-linecap:round;stroke-linejoin:miter;stroke:rgb(100%,100%,100%);stroke-opacity:1;stroke-miterlimit:4;" d="M 88.832759 455.612789 L 92.441358 455.612789 " transform="matrix(0.541242,0,0,0.54205,-3.220633,7.61718)"/>
</g>
</svg>
